<svg width="60" height="35" viewBox="0 0 60 35" fill="none" xmlns="http://www.w3.org/2000/svg">
<path d="M6.5 30.3906V28.8101H16.4127V30.3906H6.5Z" fill="#834C33"/>
<path d="M16.4126 30.3906V28.8101H53.4997V30.3906H16.4126Z" fill="#834C33"/>
<path d="M53.4999 25.1791H49.4836V7.02405C49.4836 6.04154 49.099 5.52893 48.3727 5.52893C47.7745 5.52893 47.2191 5.82795 46.6209 6.46872C46.8345 6.98133 46.9627 7.57938 46.9627 8.34829V24.4956H47.9454V25.1791H43.9718V7.02405C43.9718 6.04154 43.5873 5.52893 42.8182 5.52893C42.3055 5.52893 41.8355 5.74252 41.4082 6.21241V24.4956H42.3909V25.1791H37.3918V24.4956H38.3746V5.65708H37.3918V4.93088H41.4082V5.48621C41.9636 5.01632 42.7327 4.76001 43.6727 4.76001C44.9118 4.76001 45.8091 5.14447 46.3645 5.91339C47.1336 5.14447 48.0736 4.76001 49.2272 4.76001C51.449 4.76001 52.5172 5.9561 52.5172 8.34829V24.4956H53.4999V25.1791Z" fill="#1A5D54"/>
<path d="M25.7275 21.4199C25.7275 22.5306 25.343 23.4703 24.6166 24.2393C23.8048 25.0082 22.7794 25.3926 21.5403 25.3926C20.3012 25.3926 19.2757 25.0082 18.4639 24.2393C17.6521 23.4703 17.2676 22.5306 17.2676 21.4199V19.0277H20.3012V23.1286C20.3012 24.1538 20.7285 24.6664 21.5403 24.6664C22.3094 24.6664 22.7366 24.1538 22.7366 23.1286V20.1384C22.7366 18.8996 22.3948 17.9171 21.6685 17.2336L18.4639 14.0297C17.6521 13.2608 17.2676 12.1074 17.2676 10.5696V8.73275C17.2676 7.62209 17.6521 6.6823 18.4212 5.91339C19.1903 5.14447 20.173 4.76001 21.4548 4.76001C22.6939 4.76001 23.7194 5.14447 24.4884 5.91339C25.2575 6.6823 25.6421 7.62209 25.6421 8.73275V11.1249H22.6085V7.02405C22.6085 5.99882 22.2239 5.48621 21.4121 5.48621C20.643 5.48621 20.2585 5.99882 20.2585 7.02405V9.71526C20.2585 10.9541 20.6003 11.9366 21.2839 12.6201L24.4884 15.7812C25.3003 16.5928 25.6848 17.7462 25.6848 19.2413V21.4199H25.7275Z" fill="#1A5D54"/>
<path d="M36.8357 25.1791H32.8194V24.6237C32.2639 25.1363 31.5376 25.3499 30.6403 25.3499C28.504 25.3499 27.3931 24.1538 27.3931 21.7616V17.319C27.3931 14.7987 28.8885 13.5598 31.8794 13.5598H32.8194V7.02405C32.8194 5.99882 32.4349 5.48621 31.6658 5.48621C30.9394 5.48621 30.5549 5.99882 30.5549 7.02405V11.1249H27.5212V8.73275C27.5212 7.53666 27.9058 6.55415 28.6321 5.82795C29.4012 5.10175 30.384 4.76001 31.6658 4.76001C32.9476 4.76001 33.973 5.10175 34.6994 5.82795C35.4257 6.55415 35.8103 7.49394 35.8103 8.73275V24.4956H36.8357V25.1791ZM32.8194 23.9402V14.2433H31.9221C30.9394 14.2433 30.4267 14.7559 30.4267 15.7812V23.1286C30.4267 24.1111 30.7685 24.6237 31.4521 24.6237C31.9221 24.581 32.3494 24.3674 32.8194 23.9402Z" fill="#1A5D54"/>
<path d="M9.53362 21.5908V7.02405C9.53362 5.99882 10.0036 5.48621 10.9009 5.48621C11.7981 5.48621 12.2681 5.99882 12.2681 7.02405V18.3442C13.4645 17.1481 14.5754 16.5501 15.3018 16.2511V8.73275C15.3018 7.62209 14.8745 6.6823 14.0627 5.91339C13.2081 5.14447 12.1827 4.76001 10.9009 4.76001C9.61907 4.76001 8.59362 5.14447 7.73908 5.91339C6.92727 6.6823 6.5 7.62209 6.5 8.73275V21.4199C6.5 22.1461 6.67091 22.7869 7.01272 23.3849C7.18363 23.2995 7.39727 23.214 7.6109 23.0859C8.12363 22.7869 8.80726 22.317 9.53362 21.5908Z" fill="#1A5D54"/>
<path d="M14.832 17.3191C14.1483 17.7035 13.2083 18.3443 12.2683 19.4977V23.1287C12.2683 23.4277 12.2256 23.684 12.1402 23.8976C11.9692 24.4102 11.542 24.6665 10.9011 24.6665C10.8156 24.6665 10.7729 24.6665 10.6874 24.6665C9.91835 24.5811 9.53381 24.0684 9.53381 23.1287V22.9578V22.7015C8.76472 23.3422 8.08109 23.7694 7.52563 24.0257C7.61109 24.1112 7.69654 24.1966 7.782 24.282C8.25199 24.7092 8.76472 25.0082 9.3629 25.1791C9.40562 25.3073 9.40562 25.4781 9.3629 25.649C9.23472 25.9907 9.06381 26.3325 8.85017 26.6315C8.59381 26.9732 8.4229 27.2723 8.4229 27.6567C8.4229 28.5111 9.14926 29.2373 10.0038 29.2373C10.8583 29.2373 11.5847 28.5111 11.5847 27.6567C11.5847 27.2723 11.4138 26.9305 11.1574 26.6315C10.9011 26.2898 10.6874 25.8626 10.602 25.4781V25.4354C10.7302 25.4354 10.8583 25.4354 10.9865 25.4354C12.2683 25.4354 13.2938 25.051 14.1483 24.282C14.9601 23.5131 15.3874 22.5733 15.3874 21.4627V17.1055C15.1738 17.1482 15.0029 17.2336 14.832 17.3191Z" fill="#834C33"/>
</svg>
