<svg xmlns="http://www.w3.org/2000/svg" viewBox="0 0 77.53 109.96"><defs><style>.cls-1,.cls-3{fill:#a700ff;}.cls-1,.cls-10,.cls-12,.cls-2,.cls-4,.cls-5,.cls-6,.cls-7,.cls-8,.cls-9{fill-rule:evenodd;}.cls-2{fill:#a7b3b0;}.cls-5{fill:#abb3b3;}.cls-6{fill:#d60000;}.cls-7{fill:#004aff;}.cls-8{fill:#006d00;}.cls-9{fill:red;}.cls-10,.cls-11{fill:#fff;}.cls-12{fill:#aba9b3;}.cls-13{fill:#00ff6d;}</style></defs><g id="Layer_2" data-name="Layer 2"><g id="Layer_1-2" data-name="Layer 1"><polygon class="cls-1" points="10.63 50.84 16.6 44.87 18.05 48.58 5.71 53.43 0.91 41.19 10.63 50.84"/><polygon class="cls-2" points="9.35 29.43 0 29.43 0 38.88 10.63 49.43 20 40.06 9.35 29.43"/><path class="cls-1" d="M13.38,38.91A1.89,1.89,0,0,0,12,38.29a4.39,4.39,0,0,0-2.17.8,3.16,3.16,0,0,1-1.46.59,1.06,1.06,0,0,1-1-1.22,1.89,1.89,0,0,1,.57-1,1.51,1.51,0,0,1,2.28-.11l.74-.74a2.48,2.48,0,0,0-1.76-.79,2.6,2.6,0,0,0-1.66.68L7,35.85l-.69.7.65.65A2.23,2.23,0,0,0,7,40.14c1,1,2.19.54,3.42-.23a3,3,0,0,1,1.47-.57A1.09,1.09,0,0,1,13,40.6a2,2,0,0,1-.62,1.12A2,2,0,0,1,11,42.4a1.56,1.56,0,0,1-1.05-.46l-.74.74a2.52,2.52,0,0,0,1.74.75,2.64,2.64,0,0,0,1.61-.6l.54.54.7-.69-.52-.53A2.31,2.31,0,0,0,13.38,38.91Z"/><circle class="cls-3" cx="3.7" cy="33.13" r="1.7"/><path class="cls-1" d="M45.42,43.89c0-.71-.15-1.92-1.19-2a1,1,0,0,1-.93-.9,4.87,4.87,0,0,0-.48-1.75H32A4.87,4.87,0,0,0,31.55,41a1,1,0,0,1-.93.9c-1,.06-1.2,1.27-1.2,2a2.41,2.41,0,0,0,1.33,2,1,1,0,0,1,.61.61c1,2.69,3.63,4.8,6.06,4.8s5.2-2.5,6.07-4.83a1,1,0,0,1,.64-.61A2.2,2.2,0,0,0,45.42,43.89Zm-13-7.23v1.6h3v-1.5a.51.51,0,0,1,.5-.5.5.5,0,0,1,.5.5v1.5h2v-1.5a.51.51,0,0,1,.5-.5.5.5,0,0,1,.5.5v1.5h3V36.62c.25-.06,3-.44,3-3.07A3.73,3.73,0,0,0,41.55,30a5.16,5.16,0,0,0-1.94.43c-1.14-1.13-1.63-1.14-2.19-1.14s-1,0-2.18,1.14A5.06,5.06,0,0,0,33.3,30a3.74,3.74,0,0,0-3.88,3.58C29.42,36,32.09,36.56,32.42,36.66Zm14,7.23a3.18,3.18,0,0,1-2,2.89c-1,2.75-4,5.48-7,5.48s-6-2.55-7-5.46a3.38,3.38,0,0,1-2-2.91c0-1.51.61-2.89,2.14-3a5.28,5.28,0,0,1,.86-2.53v-1a4.19,4.19,0,0,1-3-3.86A4.74,4.74,0,0,1,33.3,29a5.15,5.15,0,0,1,1.68.28,3.45,3.45,0,0,1,2.44-1,3.49,3.49,0,0,1,2.45,1A5.15,5.15,0,0,1,41.55,29a4.73,4.73,0,0,1,4.87,4.58,4.13,4.13,0,0,1-3,3.86v1a5.28,5.28,0,0,1,.87,2.53C45.82,41,46.42,42.37,46.42,43.89Zm-9,1.69c-1.9-1.29-1.35,1.85-4,.56.4,1.78,2.81,2.09,4,1,1.2,1.08,3.6.77,4-1C38.78,47.43,39.32,44.29,37.42,45.58Zm3-4.32a1.19,1.19,0,1,0,1,1.18A1.1,1.1,0,0,0,40.42,41.26Zm-5,1.18a1,1,0,1,1-1-1.18A1.09,1.09,0,0,1,35.42,42.44Z"/><path class="cls-1" d="M62.28,31.16a4.48,4.48,0,0,1,6.51,0,6.5,6.5,0,0,1,5.74,11.58v9h-18v-9a6.5,6.5,0,0,1,5.75-11.58Zm6.25,19.6h5v-7.5a6.61,6.61,0,0,1-2,.52.5.5,0,1,1-.09-1,5.53,5.53,0,0,0-.46-11,6.32,6.32,0,0,0-2.51.57c-1.52-1.6-2.4-1.57-3-1.57s-1.47,0-3,1.57A6.2,6.2,0,0,0,60,31.76a5.51,5.51,0,0,0-5.5,5.5,5.57,5.57,0,0,0,5,5.53.5.5,0,0,1-.09,1,6.66,6.66,0,0,1-2-.52v7.5h5v-3.5a.5.5,0,1,1,1,0v3.5h4v-3.5a.5.5,0,1,1,1,0Z"/><polygon class="cls-4" points="10.63 79.11 16.6 73.14 18.05 76.85 5.71 81.69 0.91 69.46 10.63 79.11"/><polygon class="cls-5" points="9.35 57.69 0 57.69 0 67.15 10.63 77.69 20 68.32 9.35 57.69"/><path class="cls-6" d="M45.42,72.15c0-.71-.15-1.92-1.19-2a1,1,0,0,1-.93-.9,4.87,4.87,0,0,0-.48-1.75H32a4.87,4.87,0,0,0-.48,1.75,1,1,0,0,1-.93.9c-1,.06-1.2,1.27-1.2,2a2.43,2.43,0,0,0,1.33,2,1,1,0,0,1,.61.6c1,2.69,3.63,4.8,6.06,4.8s5.2-2.49,6.07-4.83a1,1,0,0,1,.64-.61A2.2,2.2,0,0,0,45.42,72.15Zm-13-7.23v1.6h3V65a.51.51,0,0,1,.5-.5.5.5,0,0,1,.5.5v1.5h2V65a.51.51,0,0,1,.5-.5.5.5,0,0,1,.5.5v1.5h3V64.88c.25-.06,3-.44,3-3.07a3.74,3.74,0,0,0-3.87-3.58,5.16,5.16,0,0,0-1.94.43c-1.14-1.13-1.63-1.14-2.19-1.14s-1,0-2.18,1.14a5.06,5.06,0,0,0-1.94-.43,3.75,3.75,0,0,0-3.88,3.58C29.42,64.27,32.09,64.82,32.42,64.92Zm14,7.23a3.18,3.18,0,0,1-2,2.89c-1,2.75-4,5.48-7,5.48s-6-2.55-7-5.46a3.37,3.37,0,0,1-2-2.91c0-1.51.61-2.89,2.14-3a5.24,5.24,0,0,1,.86-2.52v-1a4.19,4.19,0,0,1-3-3.86,4.74,4.74,0,0,1,4.88-4.58,5.15,5.15,0,0,1,1.68.28,3.45,3.45,0,0,1,2.44-1,3.49,3.49,0,0,1,2.45,1,5.15,5.15,0,0,1,1.68-.28,4.73,4.73,0,0,1,4.87,4.58,4.13,4.13,0,0,1-3,3.86v1a5.32,5.32,0,0,1,.87,2.53C45.82,69.26,46.42,70.64,46.42,72.15Zm-9,1.69c-1.9-1.29-1.35,1.85-4,.57.4,1.78,2.81,2.08,4,1,1.2,1.07,3.6.77,4-1C38.78,75.7,39.32,72.55,37.42,73.84Zm3-4.32a1.19,1.19,0,0,0,0,2.35,1.19,1.19,0,0,0,0-2.35Zm-5,1.18a1,1,0,1,1-2,0,1,1,0,1,1,2,0Z"/><path class="cls-6" d="M62.28,59.42a4.48,4.48,0,0,1,6.51,0A6.5,6.5,0,0,1,74.53,71v9h-18V71a6.5,6.5,0,0,1,5.75-11.58ZM68.53,79h5v-7.5a6.32,6.32,0,0,1-2,.52.5.5,0,1,1-.09-1A5.53,5.53,0,0,0,71,60a6.32,6.32,0,0,0-2.51.57C67,59,66.12,59,65.53,59s-1.47,0-3,1.57A6.37,6.37,0,0,0,60,60a5.51,5.51,0,0,0-5.5,5.5,5.57,5.57,0,0,0,5,5.53.5.5,0,1,1-.09,1,6.37,6.37,0,0,1-2-.52V79h5v-3.5a.5.5,0,0,1,1,0V79h4v-3.5a.5.5,0,0,1,1,0Z"/><path class="cls-7" d="M10.63,107.37l6-6,1.46,3.71L5.72,110,.91,97.72ZM9.35,86H0v9.45L10.62,106,20,96.58Zm4,9.47A1.92,1.92,0,0,0,12,94.82a4.39,4.39,0,0,0-2.17.8,3.11,3.11,0,0,1-1.46.58,1.05,1.05,0,0,1-1-1.21A1.86,1.86,0,0,1,8,94a1.5,1.5,0,0,1,2.28-.11l.74-.74a2.49,2.49,0,0,0-1.76-.8A2.6,2.6,0,0,0,7.58,93L7,92.37l-.69.7.65.65A2.23,2.23,0,0,0,7,96.66c1,1,2.19.54,3.42-.23a2.92,2.92,0,0,1,1.47-.56A1.09,1.09,0,0,1,13,97.13a2,2,0,0,1-.62,1.12,2,2,0,0,1-1.35.68,1.57,1.57,0,0,1-1.05-.47l-.74.74a2.53,2.53,0,0,0,1.74.76,2.64,2.64,0,0,0,1.61-.6l.54.54.7-.7-.52-.52A2.32,2.32,0,0,0,13.38,95.43ZM3.7,88A1.7,1.7,0,1,1,2,89.66,1.7,1.7,0,0,1,3.7,88Z"/><path class="cls-7" d="M45.42,100.41c0-.71-.15-1.91-1.19-2a1,1,0,0,1-.93-.9,4.82,4.82,0,0,0-.48-1.74H32a4.82,4.82,0,0,0-.48,1.74,1,1,0,0,1-.93.9c-1,.07-1.2,1.27-1.2,2a2.43,2.43,0,0,0,1.33,2,1,1,0,0,1,.61.6c1,2.7,3.63,4.81,6.06,4.81s5.2-2.5,6.07-4.84a1,1,0,0,1,.64-.6A2.21,2.21,0,0,0,45.42,100.41Zm-13-7.22v1.6h3v-1.5a.5.5,0,0,1,.5-.5.5.5,0,0,1,.5.5v1.5h2v-1.5a.5.5,0,0,1,.5-.5.5.5,0,0,1,.5.5v1.5h3V93.14c.25-.06,3-.44,3-3.07a3.74,3.74,0,0,0-3.87-3.58,5.16,5.16,0,0,0-1.94.43c-1.14-1.12-1.63-1.13-2.19-1.13s-1,0-2.18,1.13a5.06,5.06,0,0,0-1.94-.43,3.75,3.75,0,0,0-3.88,3.58C29.42,92.53,32.09,93.08,32.42,93.19Zm14,7.22a3.18,3.18,0,0,1-2,2.89c-1,2.76-4,5.49-7,5.49s-6-2.56-7-5.47a3.37,3.37,0,0,1-2-2.91c0-1.5.61-2.88,2.14-3a5.24,5.24,0,0,1,.86-2.53v-1a4.19,4.19,0,0,1-3-3.86,4.74,4.74,0,0,1,4.88-4.58,5.15,5.15,0,0,1,1.68.28,3.44,3.44,0,0,1,2.44-1,3.48,3.48,0,0,1,2.45,1,5.15,5.15,0,0,1,1.68-.28,4.73,4.73,0,0,1,4.87,4.58,4.13,4.13,0,0,1-3,3.86v1a5.24,5.24,0,0,1,.87,2.53C45.82,97.53,46.42,98.9,46.42,100.41Zm-9,1.69c-1.9-1.28-1.35,1.86-4,.57.4,1.78,2.81,2.08,4,1,1.2,1.07,3.6.77,4-1C38.78,104,39.32,100.82,37.42,102.1Zm3-4.31a1.18,1.18,0,1,0,1,1.17A1.09,1.09,0,0,0,40.42,97.79Zm-5,1.17a1,1,0,1,1-1-1.17A1.09,1.09,0,0,1,35.42,99Z"/><path class="cls-7" d="M62.28,87.68a4.51,4.51,0,0,1,6.51,0A6.68,6.68,0,0,1,71,87.29a6.5,6.5,0,0,1,3.5,12v9h-18v-9a6.5,6.5,0,0,1,3.5-12A6.69,6.69,0,0,1,62.28,87.68Zm6.25,19.61h5V99.78a6.66,6.66,0,0,1-2,.53.5.5,0,0,1-.09-1,5.56,5.56,0,0,0,5-5.52,5.5,5.5,0,0,0-5.5-5.5,6.51,6.51,0,0,0-2.51.56c-1.52-1.6-2.4-1.56-3-1.56s-1.47,0-3,1.56A6.38,6.38,0,0,0,60,88.29a5.5,5.5,0,0,0-5.5,5.5,5.56,5.56,0,0,0,5,5.52.5.5,0,0,1-.09,1,6.71,6.71,0,0,1-2-.53v7.51h5v-3.5a.5.5,0,1,1,1,0v3.5h4v-3.5a.5.5,0,1,1,1,0Z"/><polygon class="cls-8" points="10.63 22.58 16.6 16.61 18.05 20.32 5.71 25.17 0.91 12.93 10.63 22.58"/><polygon class="cls-9" points="9.35 1.17 0 1.17 0 10.62 10.63 21.17 20 11.79 9.35 1.17"/><path class="cls-10" d="M13.38,10.65A1.89,1.89,0,0,0,12,10a4.39,4.39,0,0,0-2.17.8,3.16,3.16,0,0,1-1.46.59,1.06,1.06,0,0,1-1-1.22,1.86,1.86,0,0,1,.57-1,1.51,1.51,0,0,1,2.28-.11L11,8.33a2.48,2.48,0,0,0-1.76-.79,2.58,2.58,0,0,0-1.66.67L7,7.59l-.69.7.65.65A2.23,2.23,0,0,0,7,11.88c1,1,2.19.54,3.42-.24a2.92,2.92,0,0,1,1.47-.56A1.09,1.09,0,0,1,13,12.34a2,2,0,0,1-.62,1.12,2,2,0,0,1-1.35.68,1.56,1.56,0,0,1-1.05-.46l-.74.74a2.56,2.56,0,0,0,1.74.75,2.64,2.64,0,0,0,1.61-.6l.54.54.7-.7-.52-.52A2.31,2.31,0,0,0,13.38,10.65Z"/><circle class="cls-11" cx="3.7" cy="4.87" r="1.7"/><path class="cls-12" d="M45.42,15.63c0-.71-.15-1.92-1.19-2a1,1,0,0,1-.93-.91A4.82,4.82,0,0,0,42.82,11H32a4.82,4.82,0,0,0-.48,1.74,1,1,0,0,1-.93.91c-1,.06-1.2,1.27-1.2,2a2.43,2.43,0,0,0,1.33,2,1,1,0,0,1,.61.61c1,2.69,3.63,4.8,6.06,4.8s5.2-2.5,6.07-4.83a1,1,0,0,1,.64-.61A2.2,2.2,0,0,0,45.42,15.63Zm-13-7.23V10h3V8.5a.5.5,0,0,1,.5-.5.5.5,0,0,1,.5.5V10h2V8.5a.5.5,0,0,1,.5-.5.5.5,0,0,1,.5.5V10h3V8.35c.25,0,3-.44,3-3.07a3.73,3.73,0,0,0-3.87-3.57,5.16,5.16,0,0,0-1.94.42C38.47,1,38,1,37.42,1s-1,0-2.18,1.13a5.25,5.25,0,0,0-1.94-.42,3.74,3.74,0,0,0-3.88,3.57C29.42,7.74,32.09,8.3,32.42,8.4Zm14,7.23a3.17,3.17,0,0,1-2,2.88c-1,2.76-4,5.49-7,5.49s-6-2.56-7-5.47a3.37,3.37,0,0,1-2-2.9c0-1.51.61-2.89,2.14-3a5.24,5.24,0,0,1,.86-2.53v-1a4.18,4.18,0,0,1-3-3.86A4.74,4.74,0,0,1,33.3.71,4.9,4.9,0,0,1,35,1a3.45,3.45,0,0,1,2.44-1,3.49,3.49,0,0,1,2.45,1A4.9,4.9,0,0,1,41.55.71a4.73,4.73,0,0,1,4.87,4.57,4.12,4.12,0,0,1-3,3.86v1a5.28,5.28,0,0,1,.87,2.53C45.82,12.74,46.42,14.11,46.42,15.63Zm-9,1.69c-1.9-1.29-1.35,1.85-4,.56.4,1.78,2.81,2.08,4,1,1.2,1.07,3.6.77,4-1C38.78,19.17,39.32,16,37.42,17.32Zm3-4.32a1.09,1.09,0,0,0-1,1.17,1,1,0,1,0,2,0A1.09,1.09,0,0,0,40.42,13Zm-5,1.17a1,1,0,1,1-2,0,1,1,0,1,1,2,0Z"/><path class="cls-12" d="M62.28,2.9a4.48,4.48,0,0,1,6.51,0,6.5,6.5,0,0,1,5.74,11.58v9h-18v-9A6.5,6.5,0,0,1,62.28,2.9Zm6.25,19.6h5V15a6.36,6.36,0,0,1-2,.53.5.5,0,0,1-.09-1A5.52,5.52,0,0,0,71,3.5a6.51,6.51,0,0,0-2.51.56c-1.52-1.59-2.4-1.56-3-1.56s-1.47,0-3,1.56A6.38,6.38,0,0,0,60,3.5,5.5,5.5,0,0,0,54.53,9a5.56,5.56,0,0,0,5,5.52.5.5,0,0,1-.09,1,6.71,6.71,0,0,1-2-.53V22.5h5V19a.5.5,0,0,1,1,0v3.5h4V19a.5.5,0,0,1,1,0Z"/><circle class="cls-13" cx="65.53" cy="7.54" r="1.7"/><circle class="cls-13" cx="59.83" cy="8.27" r="1.7"/><circle class="cls-13" cx="72.59" cy="8.27" r="1.7"/></g></g></svg>