<svg xmlns="http://www.w3.org/2000/svg" viewBox="0 0 24 22"><defs><style>.cls-1{fill:#d60000;fill-rule:evenodd;}</style></defs><g id="Layer_2" data-name="Layer 2"><g id="Layer_1-2" data-name="Layer 1"><path class="cls-1" d="M8.74,1.4a4.5,4.5,0,0,1,6.52,0A6.4,6.4,0,0,1,17.5,1,6.5,6.5,0,0,1,21,13v9H3V13A6.5,6.5,0,0,1,6.5,1,6.4,6.4,0,0,1,8.74,1.4ZM15,21h5V13.49a6.43,6.43,0,0,1-1.95.53.5.5,0,0,1-.55-.45A.51.51,0,0,1,18,13,5.52,5.52,0,0,0,17.5,2,6.47,6.47,0,0,0,15,2.56C13.47,1,12.59,1,12,1S10.53,1,9,2.56A6.32,6.32,0,0,0,6.5,2a5.52,5.52,0,0,0-.45,11,.51.51,0,0,1,.45.55A.5.5,0,0,1,6,14,6.74,6.74,0,0,1,4,13.49V21H9V17.5a.5.5,0,0,1,1,0V21h4V17.5a.5.5,0,0,1,1,0Z"/></g></g></svg>