<svg xmlns="http://www.w3.org/2000/svg" viewBox="0 0 18 24"><defs><style>.cls-1{fill:#004aff;fill-rule:evenodd;}</style></defs><g id="Layer_2" data-name="Layer 2"><g id="Layer_1-2" data-name="Layer 1"><path class="cls-1" d="M17,15.63c0-.71-.15-1.92-1.19-2a1,1,0,0,1-.94-.91A4.61,4.61,0,0,0,14.4,11H3.6a4.61,4.61,0,0,0-.47,1.74,1,1,0,0,1-.94.91c-1,.06-1.19,1.27-1.19,2a2.4,2.4,0,0,0,1.33,2,1,1,0,0,1,.61.61C3.91,20.89,6.57,23,9,23s5.19-2.5,6.06-4.83a1,1,0,0,1,.64-.61A2.22,2.22,0,0,0,17,15.63ZM4,8.4V10H7V8.5a.5.5,0,0,1,1,0V10h2V8.5a.5.5,0,0,1,1,0V10h3V8.35c.24,0,3-.44,3-3.07a3.73,3.73,0,0,0-3.88-3.57,5.25,5.25,0,0,0-1.94.42C10.05,1,9.55,1,9,1S8,1,6.82,2.13a5.29,5.29,0,0,0-1.94-.42A3.73,3.73,0,0,0,1,5.28C1,7.74,3.66,8.3,4,8.4Zm14,7.23a3.17,3.17,0,0,1-2,2.88C15,21.27,12,24,9,24s-6-2.56-7-5.47a3.37,3.37,0,0,1-2-2.9c0-1.51.6-2.89,2.13-3A5.24,5.24,0,0,1,3,10.12v-1A4.18,4.18,0,0,1,0,5.28,4.73,4.73,0,0,1,4.88.71,4.94,4.94,0,0,1,6.56,1a3.5,3.5,0,0,1,4.88,0A4.94,4.94,0,0,1,13.12.71,4.73,4.73,0,0,1,18,5.28a4.12,4.12,0,0,1-3,3.86v1a5.28,5.28,0,0,1,.87,2.53C17.4,12.74,18,14.11,18,15.63ZM9,17.32C7.1,16,7.65,19.17,5,17.88c.4,1.78,2.81,2.08,4,1,1.19,1.07,3.6.77,4-1C10.35,19.17,10.9,16,9,17.32ZM12,13a1.09,1.09,0,0,0-1,1.17,1.1,1.1,0,0,0,1,1.18,1.1,1.1,0,0,0,1-1.18A1.09,1.09,0,0,0,12,13ZM7,14.17a1.1,1.1,0,0,1-1,1.18,1.1,1.1,0,0,1-1-1.18A1.09,1.09,0,0,1,6,13,1.09,1.09,0,0,1,7,14.17Z"/></g></g></svg>