<svg xmlns="http://www.w3.org/2000/svg" viewBox="0 0 20 24"><defs><style>.cls-1{fill:#bf4aff;fill-rule:evenodd;}</style></defs><g id="Layer_2" data-name="Layer 2"><g id="Layer_1-2" data-name="Layer 1"><path class="cls-1" d="M10.63,21.41l6-6,1.46,3.71L5.72,24,.91,11.76ZM9.35,0H0V9.45L10.62,20,20,10.62Zm4,9.48A1.89,1.89,0,0,0,12,8.86a4.39,4.39,0,0,0-2.17.8,3.16,3.16,0,0,1-1.46.59A1.06,1.06,0,0,1,7.41,9,1.86,1.86,0,0,1,8,8a1.51,1.51,0,0,1,2.28-.11L11,7.16a2.48,2.48,0,0,0-1.76-.79A2.58,2.58,0,0,0,7.58,7L7,6.42l-.69.7.65.65A2.23,2.23,0,0,0,7,10.71c1,1,2.19.54,3.42-.24a2.92,2.92,0,0,1,1.47-.56A1.09,1.09,0,0,1,13,11.17a2,2,0,0,1-.62,1.12A2,2,0,0,1,11,13a1.56,1.56,0,0,1-1.05-.46l-.74.74a2.56,2.56,0,0,0,1.74.75,2.64,2.64,0,0,0,1.61-.6l.54.54.7-.7-.52-.52A2.31,2.31,0,0,0,13.38,9.48ZM3.7,2A1.7,1.7,0,1,1,2,3.7,1.7,1.7,0,0,1,3.7,2Z"/></g></g></svg>